<?xml version="1.0" encoding="UTF-8"?> <svg xmlns="http://www.w3.org/2000/svg" viewBox="0 0 360 255"><defs><style>.cls-1{fill:#fff;}.cls-2{fill:#55a7dd;}</style></defs><g id="Layer_2" data-name="Layer 2"><g id="Layer_1-2" data-name="Layer 1"><path class="cls-1" d="M45.18,178.44A30,30,0,0,0,61,152v-8a30,30,0,0,0-60,0v6H13v-8a18,18,0,0,1,36,0v15a18,18,0,0,1-18,18H25v11h6a19,19,0,0,1,19,19v21a19,19,0,0,1-38,0v-8H0v6a31,31,0,0,0,62,0V206a31,31,0,0,0-16.82-27.56"></path><path class="cls-1" d="M121.5,226.5a18.5,18.5,0,0,1-37,0V142a18,18,0,0,1,36,0v8h12v-6a30,30,0,0,0-60,0v80.5a30.5,30.5,0,0,0,61,0V218h-12Z"></path><rect class="cls-1" x="144" y="109" width="12" height="144"></rect><path class="cls-1" d="M348,109v43a28,28,0,0,0-44,23v52a28,28,0,0,0,48.8,18.74L354,253h6V109Zm0,92v39a27.91,27.91,0,0,1-16,5,16,16,0,0,1-16-16V173a16,16,0,0,1,16-16,27.91,27.91,0,0,1,16,5v39Z"></path><path class="cls-1" d="M196,147a28,28,0,0,0-28,28v52a28,28,0,0,0,56,0V175a28,28,0,0,0-28-28m16,82a16,16,0,0,1-32,0V173a16,16,0,0,1,32,0Z"></path><path class="cls-1" d="M280.5,240a27.91,27.91,0,0,1-16,5,16,16,0,0,1-16-16V149h-12v78a28,28,0,0,0,48.8,18.74l1.2,7.26h6V149h-12Z"></path><path class="cls-2" d="M108,102H96a53.06,53.06,0,0,1,53-53,54.15,54.15,0,0,1,7.4.52A97,97,0,0,1,330,58.47,39.56,39.56,0,0,1,360,97H348a27.62,27.62,0,0,0-23.25-27.38l-3.37-.55-1.25-3.18a85,85,0,0,0-155.14-7l-2.11,4.21-4.6-1.06A41,41,0,0,0,108,102"></path></g></g></svg> 